<svg width="400" height="300" viewBox="0 0 400 300" fill="none" xmlns="http://www.w3.org/2000/svg">
  <rect width="400" height="300" fill="#F8FAFC"/>
  
  <!-- Dashboard container -->
  <rect x="50" y="50" width="300" height="200" rx="8" fill="white" stroke="#E2E8F0" stroke-width="2"/>
  
  <!-- Header -->
  <rect x="50" y="50" width="300" height="40" rx="8" fill="#F8FAFC"/>
  <text x="70" y="75" fill="#1E293B" font-family="Arial, sans-serif" font-size="14" font-weight="bold">Analytics Dashboard</text>
  
  <!-- Chart area -->
  <rect x="70" y="110" width="260" height="120" fill="#FAFAFA" stroke="#E5E7EB"/>
  
  <!-- Line chart -->
  <polyline points="80,200 120,180 160,160 200,140 240,120 280,100 320,110" 
            fill="none" stroke="#3B82F6" stroke-width="3" stroke-linecap="round"/>
  
  <!-- Data points -->
  <circle cx="80" cy="200" r="4" fill="#3B82F6"/>
  <circle cx="120" cy="180" r="4" fill="#3B82F6"/>
  <circle cx="160" cy="160" r="4" fill="#3B82F6"/>
  <circle cx="200" cy="140" r="4" fill="#3B82F6"/>
  <circle cx="240" cy="120" r="4" fill="#3B82F6"/>
  <circle cx="280" cy="100" r="4" fill="#3B82F6"/>
  <circle cx="320" cy="110" r="4" fill="#3B82F6"/>
  
  <!-- Grid lines -->
  <line x1="70" y1="130" x2="330" y2="130" stroke="#E5E7EB" stroke-dasharray="2,2"/>
  <line x1="70" y1="160" x2="330" y2="160" stroke="#E5E7EB" stroke-dasharray="2,2"/>
  <line x1="70" y1="190" x2="330" y2="190" stroke="#E5E7EB" stroke-dasharray="2,2"/>
  
  <!-- Stats boxes -->
  <rect x="70" y="240" width="60" height="30" rx="4" fill="#EFF6FF"/>
  <text x="100" y="252" text-anchor="middle" fill="#3B82F6" font-family="Arial, sans-serif" font-size="10">Visitors</text>
  <text x="100" y="264" text-anchor="middle" fill="#1E293B" font-family="Arial, sans-serif" font-size="12" font-weight="bold">1.2K</text>
  
  <rect x="140" y="240" width="60" height="30" rx="4" fill="#F0FDF4"/>
  <text x="170" y="252" text-anchor="middle" fill="#10B981" font-family="Arial, sans-serif" font-size="10">Conversion</text>
  <text x="170" y="264" text-anchor="middle" fill="#1E293B" font-family="Arial, sans-serif" font-size="12" font-weight="bold">3.4%</text>
  
  <rect x="210" y="240" width="60" height="30" rx="4" fill="#FEF3C7"/>
  <text x="240" y="252" text-anchor="middle" fill="#F59E0B" font-family="Arial, sans-serif" font-size="10">Bounce Rate</text>
  <text x="240" y="264" text-anchor="middle" fill="#1E293B" font-family="Arial, sans-serif" font-size="12" font-weight="bold">45%</text>
  
  <text x="200" y="290" text-anchor="middle" fill="#64748B" font-family="Arial, sans-serif" font-size="14">Analytics & Tracking</text>
</svg>