<svg width="400" height="300" viewBox="0 0 400 300" fill="none" xmlns="http://www.w3.org/2000/svg">
  <rect width="400" height="300" fill="#F8FAFC"/>
  
  <!-- Search bar -->
  <rect x="50" y="80" width="300" height="50" rx="25" fill="white" stroke="#E2E8F0" stroke-width="2"/>
  <circle cx="320" cy="105" r="15" fill="#3B82F6"/>
  <path d="M315 105 L325 105 M320 100 L320 110" stroke="white" stroke-width="2" stroke-linecap="round"/>
  
  <!-- Search text -->
  <text x="80" y="110" fill="#64748B" font-family="Arial, sans-serif" font-size="16">Search Engine Optimization</text>
  
  <!-- Results -->
  <rect x="50" y="150" width="300" height="40" rx="4" fill="white" stroke="#E2E8F0"/>
  <rect x="60" y="160" width="200" height="8" rx="2" fill="#10B981"/>
  <rect x="60" y="172" width="150" height="6" rx="1" fill="#94A3B8"/>
  
  <rect x="50" y="200" width="300" height="40" rx="4" fill="white" stroke="#E2E8F0"/>
  <rect x="60" y="210" width="180" height="8" rx="2" fill="#3B82F6"/>
  <rect x="60" y="222" width="120" height="6" rx="1" fill="#94A3B8"/>
  
  <!-- SEO elements -->
  <circle cx="80" cy="260" r="20" fill="#F0FDF4" stroke="#10B981" stroke-width="2"/>
  <text x="80" y="265" text-anchor="middle" fill="#10B981" font-family="Arial, sans-serif" font-size="12" font-weight="bold">1</text>
  
  <circle cx="150" cy="260" r="20" fill="#EFF6FF" stroke="#3B82F6" stroke-width="2"/>
  <text x="150" y="265" text-anchor="middle" fill="#3B82F6" font-family="Arial, sans-serif" font-size="12" font-weight="bold">2</text>
  
  <circle cx="220" cy="260" r="20" fill="#FEF3C7" stroke="#F59E0B" stroke-width="2"/>
  <text x="220" y="265" text-anchor="middle" fill="#F59E0B" font-family="Arial, sans-serif" font-size="12" font-weight="bold">3</text>
  
  <!-- Arrow pointing up -->
  <path d="M320 200 L320 160 M310 170 L320 160 L330 170" stroke="#10B981" stroke-width="3" fill="none" stroke-linecap="round"/>
  
  <text x="200" y="290" text-anchor="middle" fill="#64748B" font-family="Arial, sans-serif" font-size="14">SEO Optimization</text>
</svg>